<svg width="24" height="24" viewBox="0 0 24 24" xmlns="http://www.w3.org/2000/svg">
  <path d="M12,2c-0.5,0-1,0.5-1,1v4c0,0.5,0.5,1,1,1s1-0.5,1-1V3C13,2.5,12.5,2,12,2z" fill="currentColor"/>
  <path d="M18,6h-2c-0.5,0-1,0.5-1,1v2c0,0.5,0.5,1,1,1h2c0.5,0,1-0.5,1-1V7C19,6.5,18.5,6,18,6z" fill="currentColor"/>
  <path d="M8,14c-0.5,0-1,0.5-1,1v4c0,0.5,0.5,1,1,1s1-0.5,1-1v-4C9,14.5,8.5,14,8,14z" fill="currentColor"/>
  <path d="M12,14c-0.5,0-1,0.5-1,1v4c0,0.5,0.5,1,1,1s1-0.5,1-1v-4C13,14.5,12.5,14,12,14z" fill="currentColor"/>
  <path d="M16,14c-0.5,0-1,0.5-1,1v4c0,0.5,0.5,1,1,1s1-0.5,1-1v-4C17,14.5,16.5,14,16,14z" fill="currentColor"/>
  <path d="M21,20H3c-0.5,0-1,0.5-1,1s0.5,1,1,1h18c0.5,0,1-0.5,1-1S21.5,20,21,20z" fill="currentColor"/>
</svg>
